#!OML:ASF E:\motion texture\Top Level 1\Subject 1\Session 1\male.ASF
:FULLY-SPECIFIED
:DEGREES
209
root 2.52846 17.7732 5.19499 784.155 -81.7071 -779.44
lowerback -0.804452 -2.7472 3.59846
upperback -1.46962 -3.83665 6.90588
thorax -0.819405 -2.0128 5.12134
lowerneck -9.8966 -4.72276 -6.88889
upperneck 23.399 -7.67601 7.29295
head 9.54413 -3.64624 2.77597
rclavicle 4.12478e-015 1.90833e-014
rhumerus -31.6825 -7.66948 -76.9776
rradius 78.6293
rwrist -19.622
rhand -17.4595 -48.5342
rfingers 7.12502
rthumb 8.79199 -78.3311
lclavicle 4.12478e-015 1.90833e-014
lhumerus -29.7702 -5.22404 89.9683
lradius 72.7233
lwrist 11.9616
lhand -12.3535 31.5593
lfingers 7.12502
lthumb 13.7164 61.0872
rfemur -23.0472 2.88653 29.0646
rtibia 24.5363
rfoot -2.95215 -11.8083
rtoes 16.3091
lfemur -7.2359 -2.87577 -8.27226
ltibia 52.1959
lfoot 11.6673 -9.44455
ltoes -13.1439
210
root 2.36437 17.7869 5.16532 784.538 -81.3511 -780.121
lowerback -0.688041 -2.69634 3.82495
upperback -1.42122 -3.7687 6.98999
thorax -0.847754 -1.98305 5.08849
lowerneck -9.95515 -4.78465 -6.76715
upperneck 23.4835 -7.81536 7.36442
head 9.59457 -3.69275 2.76215
rclavicle 2.127e-014 3.97569e-014
rhumerus -31.366 -7.17024 -77.1731
rradius 79.5184
rwrist -19.7289
rhand -17.3443 -48.8324
rfingers 7.12502
rthumb 8.90314 -78.6246
lclavicle 2.127e-014 3.97569e-014
lhumerus -29.6313 -6.23515 89.9231
lradius 73.0822
lwrist 11.7348
lhand -11.7157 31.1339
lfingers 7.12502
lthumb 14.331 60.6193
rfemur -21.9281 2.95125 29.6813
rtibia 24.2288
rfoot -3.4492 -11.9074
rtoes 16.2253
lfemur -8.23134 -2.61358 -7.67604
ltibia 53.9694
lfoot 10.9404 -9.01842
ltoes -13.9625
211
root 2.20029 17.8019 5.13636 784.813 -81.0661 -780.684
lowerback -0.579573 -2.63997 3.98519
upperback -1.37584 -3.69152 7.0463
thorax -0.87269 -1.94734 5.06294
lowerneck -10.0153 -4.84122 -6.65682
upperneck 23.5656 -7.94953 7.45334
head 9.64534 -3.73586 2.75683
rclavicle 1.46107e-014 -7.63333e-014
rhumerus -31.0569 -6.67787 -77.3655
rradius 80.4952
rwrist -19.9077
rhand -17.1517 -49.0833
rfingers 7.12502
rthumb 9.08899 -78.8674
lclavicle 1.46107e-014 -7.63333e-014
lhumerus -29.5575 -7.14253 89.8601
lradius 73.5499
lwrist 11.4213
lhand -10.9706 30.7589
lfingers 7.12502
lthumb 15.0488 60.192
rfemur -20.7822 3.04319 30.2197
rtibia 23.8543
rfoot -3.92 -12.0306
rtoes 16.1972
lfemur -9.21473 -2.30356 -7.16751
ltibia 55.6084
lfoot 9.98193 -8.47934
ltoes -14.928
212
root 2.03602 17.8185 5.10814 785.106 -80.8523 -781.236
lowerback -0.527131 -2.58092 4.08743
upperback -1.33286 -3.61378 7.07976
thorax -0.866327 -1.91018 5.04243
lowerneck -10.0271 -4.87784 -6.58265
upperneck 23.6131 -8.05773 7.57987
head 9.67567 -3.76771 2.77487
rclavicle -9.74045e-015 7.15625e-014
rhumerus -30.7446 -6.20027 -77.5582
rradius 81.5532
rwrist -20.1387
rhand -16.8644 -49.2428
rfingers 7.12502
rthumb 9.36619 -79.0147
lclavicle -9.74045e-015 7.15625e-014
lhumerus -29.5715 -7.91578 89.7783
lradius 74.1444
lwrist 10.9707
lhand -10.0921 30.4728
lfingers 7.12502
lthumb 15.895 59.8405
rfemur -19.6339 3.16267 30.6893
rtibia 23.4186
rfoot -4.36396 -12.1624
rtoes 16.2235
lfemur -10.2028 -1.93247 -6.7391
ltibia 57.1036
lfoot 8.91867 -7.8613
ltoes -15.7186
213
root 1.8718 17.8365 5.08069 785.48 -80.7107 -781.824
lowerback -0.550767 -2.50938 4.14274
upperback -1.27704 -3.52533 7.08569
thorax -0.803276 -1.86642 5.01424
lowerneck -10.0257 -4.90303 -6.52166
upperneck 23.6098 -8.14762 7.73232
head 9.6858 -3.7896 2.80658
rclavicle -6.65929e-015 -3.18055e-015
rhumerus -30.3897 -5.7921 -77.7527
rradius 82.6901
rwrist -20.3608
rhand -16.4922 -49.3206
rfingers 7.12502
rthumb 9.72529 -79.076
lclavicle -6.65929e-015 -3.18055e-015
lhumerus -29.6399 -8.57162 89.6731
lradius 74.8712
lwrist 10.3767
lhand -9.12532 30.2256
lfingers 7.12502
lthumb 16.8258 59.5166
rfemur -18.4891 3.30452 31.0924
rtibia 22.8989
rfoot -4.76928 -12.288
rtoes 16.3147
lfemur -11.2083 -1.49695 -6.39222
ltibia 58.4413
lfoot 7.8691 -7.20323
ltoes -16.2578
214
root 1.70745 17.8561 5.05398 785.82 -80.6243 -782.336
lowerback -0.618363 -2.43538 4.14858
upperback -1.22904 -3.43565 7.07399
thorax -0.721748 -1.82104 4.99318
lowerneck -10.0185 -4.9155 -6.48326
upperneck 23.5845 -8.21624 7.90127
head 9.68709 -3.80197 2.85058
rclavicle 1.68222e-014 1.59028e-015
rhumerus -30.0334 -5.44791 -77.9313
rradius 83.9187
rwrist -20.5632
rhand -15.9061 -49.2198
rfingers 7.12502
rthumb 10.2908 -78.948
lclavicle 1.68222e-014 1.59028e-015
lhumerus -29.7825 -9.09477 89.5639
lradius 75.7279
lwrist 9.64366
lhand -8.11429 29.9947
lfingers 7.12502
lthumb 17.7989 59.2002
rfemur -17.3524 3.42523 31.4319
rtibia 22.3126
rfoot -5.14934 -12.3897
rtoes 16.4681
lfemur -12.228 -1.03239 -6.12353
ltibia 59.6176
lfoot 6.9116 -6.53533
ltoes -16.4485
215
root 1.54328 17.8767 5.0281 786.224 -80.583 -782.878
lowerback -0.747187 -2.36218 4.1271
upperback -1.18101 -3.35142 7.04647
thorax -0.604838 -1.77771 4.96778
lowerneck -9.97481 -4.90902 -6.47652
upperneck 23.5245 -8.25515 8.09276
head 9.66906 -3.80235 2.91221
rclavicle 1.51573e-014 -7.95139e-014
rhumerus -29.6792 -5.15182 -78.1051
rradius 85.2376
rwrist -20.74
rhand -15.2092 -48.9943
rfingers 7.12502
rthumb 10.963 -78.6881
lclavicle 1.51573e-014 -7.95139e-014
lhumerus -30.0002 -9.47627 89.4433
lradius 76.7166
lwrist 8.79944
lhand -7.16862 29.696
lfingers 7.12502
lthumb 18.7086 58.8163
rfemur -16.2281 3.51822 31.7235
rtibia 21.6793
rfoot -5.49944 -12.4381
rtoes 16.6126
lfemur -13.2546 -0.544477 -5.91909
ltibia 60.6368
lfoot 6.00518 -5.86071
ltoes -16.58
216
root 1.37958 17.8981 5.0033 786.657 -80.5755 -783.415
lowerback -0.899333 -2.28568 4.09003
upperback -1.14183 -3.26299 7.00343
thorax -0.484267 -1.73176 4.93439
lowerneck -9.93159 -4.89948 -6.45137
upperneck 23.4494 -8.28128 8.24908
head 9.64243 -3.79863 2.95989
rclavicle 3.74212e-014 -4.45278e-014
rhumerus -29.3562 -4.91127 -78.2647
rradius 86.6533
rwrist -20.8992
rhand -14.4981 -48.6692
rfingers 7.12502
rthumb 11.6488 -78.3254
lclavicle 3.74212e-014 -4.45278e-014
lhumerus -30.2962 -9.74534 89.3192
lradius 77.8523
lwrist 7.92552
lhand -6.3269 29.3553
lfingers 7.12502
lthumb 19.5181 58.3956
rfemur -15.1156 3.5849 31.9711
rtibia 20.9989
rfoot -5.80481 -12.4352
rtoes 16.7033
lfemur -14.2886 -0.0571405 -5.7766
ltibia 61.4986
lfoot 5.19711 -5.19539
ltoes -16.4606
217
root 1.21666 17.9197 4.97966 787.132 -80.5821 -783.974
lowerback -1.05678 -2.2089 4.0548
upperback -1.11527 -3.17292 6.95028
thorax -0.374537 -1.68485 4.89008
lowerneck -9.89139 -4.88543 -6.43272
upperneck 23.38 -8.29702 8.39471
head 9.61732 -3.79172 3.00615
rclavicle 3.20043e-014 -1.02573e-013
rhumerus -29.0774 -4.70846 -78.4082
rradius 88.1548
rwrist -21.0552
rhand -13.8085 -48.2449
rfingers 7.12502
rthumb 12.3138 -77.8623
lclavicle 3.20043e-014 -1.02573e-013
lhumerus -30.6694 -9.9092 89.1953
lradius 79.1286
lwrist 7.11139
lhand -5.59189 28.9489
lfingers 7.12502
lthumb 20.2246 57.916
rfemur -14.0215 3.60581 32.1931
rtibia 20.3058
rfoot -6.07568 -12.3639
rtoes 16.7416
lfemur -15.3189 0.413435 -5.67518
ltibia 62.2117
lfoot 4.38377 -4.54773
ltoes -16.4182
